# xmcd
#
# Track frame offsets: 
#        150
#        10329
#        21758
#        33254
#        41882
#        53438
#        64663
#        74958
#        85207
#        96785
#        107035
#        118238
#        129250
#        142272
#        154779
#        165426
#        176040
#        187586
#        198610
#        210440
#        221521
#        233290
#        243934
#        254712
#
# Disc length: 3517 seconds
#
# Revision: 0
# Processed by: cddbd v1.5.2PL0 Copyright (c) Steve Scherf et al.
# Submitted via: ExactAudioCopy v0.95b4
#
DISCID=500dbb18
DTITLE=Patsy Cline - The Memorial Album
DYEAR=1999
DGENRE=Country
TTITLE0=Three Cigarettes (In An Ashtray)
TTITLE1=Walking After Midnight
TTITLE2=I've Loved And Lost Again
TTITLE3=Ain't No Wheels On This Ship
TTITLE4=Let The Teardrops Fall
TTITLE5=Just Out Of Reach
TTITLE6=Pick Me Up On Your Way
TTITLE7=Walking Dream
TTITLE8=Never No More
TTITLE9=Too Many Secrets
TTITLE10=Hungry For Love
TTITLE11=I Can't Forget You
TTITLE12=If I Could See The World
TTITLE13=Fingerprints
TTITLE14=I Can See An Angel
TTITLE15=I Don't Wanna
TTITLE16=In Care Of The Blues
TTITLE17=Stop The World (And Let Me Off)
TTITLE18=If I Could Only Stay Asleep
TTITLE19=Hidin' Out
TTITLE20=Today, Tomorrow And Forever
TTITLE21=Honky Tonk Merry Go Round
TTITLE22=I Cried All The Way To The Altar
TTITLE23=I Love You Honey
EXTD=
EXTT0=
EXTT1=
EXTT2=
EXTT3=
EXTT4=
EXTT5=
EXTT6=
EXTT7=
EXTT8=
EXTT9=
EXTT10=
EXTT11=
EXTT12=
EXTT13=
EXTT14=
EXTT15=
EXTT16=
EXTT17=
EXTT18=
EXTT19=
EXTT20=
EXTT21=
EXTT22=
EXTT23=
PLAYORDER=
